M48
INCH,TZ
T1C0.020
T2C0.025
T3C0.032
T4C0.039
T5C0.049
T6C0.087
T7C0.089
%
G90
G05
T1
X039961Y-017067
X041181Y-017323
X042205Y-015039
X043404Y-016880
X043890Y-016415
X044980Y-016575
X045103Y-017807
X046125Y-018332
X047913Y-016614
X050945Y-017807
X052480Y-022028
X053209Y-020866
T2
X052697Y-021260
T3
X039500Y-020500
X039500Y-023500
X045500Y-020500
X045500Y-023500
X046500Y-020500
X046500Y-023500
X048969Y-013854
X048969Y-016854
X048969Y-020154
X048969Y-023154
X049969Y-013854
X049969Y-016854
X049969Y-020154
X049969Y-023154
X050969Y-013854
X050969Y-016854
X050969Y-020154
X050969Y-023154
X051969Y-013854
X051969Y-016854
X051969Y-020154
X051969Y-023154
X052969Y-013854
X052969Y-016854
X052969Y-020154
X052969Y-023154
X053969Y-013854
X053969Y-016854
X053969Y-020154
X053969Y-023154
X054969Y-013854
X054969Y-016854
X054969Y-020154
X054969Y-023154
T4
X037205Y-018307
X038189Y-018307
X039173Y-018307
X042126Y-018307
X043110Y-018307
X044094Y-018307
X047047Y-018307
X048031Y-018307
X049016Y-018307
X052165Y-018307
X053150Y-018307
X054134Y-018307
T5
X040236Y-022047
X044862Y-022047
T6
X036299Y-015354
X040079Y-015354
X041220Y-015354
X045000Y-015354
X046142Y-015354
X049921Y-015354
X051260Y-015354
X055039Y-015354
T7
X036535Y-022047
X038386Y-020118
X038386Y-023346
X041161Y-022047
X043012Y-020118
X043012Y-023346
T0
M30
