%FSLAX46Y46*%
G04 Gerber Fmt 4.6, Leading zero omitted, Abs format (unit mm)*
G04 Created by KiCad (PCBNEW (2014-09-02 BZR 5112)-product) date 2015-04-11 10:31:41 PM*
%MOMM*%
G01*
G04 APERTURE LIST*
%ADD10C,0.100000*%
%ADD11R,1.574800X2.286000*%
%ADD12O,1.574800X2.286000*%
%ADD13R,0.812800X1.143000*%
%ADD14R,1.143000X0.812800*%
%ADD15O,2.800000X3.500000*%
%ADD16C,1.750000*%
%ADD17R,1.300480X0.299720*%
%ADD18O,3.500000X5.000000*%
%ADD19O,2.000000X3.500000*%
%ADD20O,3.500000X3.500000*%
G04 APERTURE END LIST*
D10*
D11*
X100330000Y-59690000D03*
D12*
X100330000Y-52070000D03*
X115570000Y-59690000D03*
X118110000Y-59690000D03*
X118110000Y-52070000D03*
X115570000Y-52070000D03*
D11*
X124380000Y-42810000D03*
D12*
X126920000Y-42810000D03*
X129460000Y-42810000D03*
X132000000Y-42810000D03*
X134540000Y-42810000D03*
X137080000Y-42810000D03*
X139620000Y-42810000D03*
X139620000Y-35190000D03*
X137080000Y-35190000D03*
X134540000Y-35190000D03*
X132000000Y-35190000D03*
X129460000Y-35190000D03*
X126920000Y-35190000D03*
X124380000Y-35190000D03*
D11*
X124380000Y-58810000D03*
D12*
X126920000Y-58810000D03*
X129460000Y-58810000D03*
X132000000Y-58810000D03*
X134540000Y-58810000D03*
X137080000Y-58810000D03*
X139620000Y-58810000D03*
X139620000Y-51190000D03*
X137080000Y-51190000D03*
X134540000Y-51190000D03*
X132000000Y-51190000D03*
X129460000Y-51190000D03*
X126920000Y-51190000D03*
X124380000Y-51190000D03*
D13*
X103850900Y-46500000D03*
X102149100Y-46500000D03*
X116350900Y-46500000D03*
X114649100Y-46500000D03*
X127649100Y-46500000D03*
X129350900Y-46500000D03*
D14*
X123500000Y-54149100D03*
X123500000Y-55850900D03*
X125500000Y-54149100D03*
X125500000Y-55850900D03*
X127500000Y-54149100D03*
X127500000Y-55850900D03*
X129500000Y-54149100D03*
X129500000Y-55850900D03*
X140000000Y-54149100D03*
X140000000Y-55850900D03*
D15*
X101800000Y-39000000D03*
X92200000Y-39000000D03*
D16*
X99500000Y-46500000D03*
X97000000Y-46500000D03*
X94500000Y-46500000D03*
D15*
X114300000Y-39000000D03*
X104700000Y-39000000D03*
D16*
X112000000Y-46500000D03*
X109500000Y-46500000D03*
X107000000Y-46500000D03*
D15*
X126800000Y-39000000D03*
X117200000Y-39000000D03*
D16*
X124500000Y-46500000D03*
X122000000Y-46500000D03*
X119500000Y-46500000D03*
D15*
X139800000Y-39000000D03*
X130200000Y-39000000D03*
D16*
X137500000Y-46500000D03*
X135000000Y-46500000D03*
X132500000Y-46500000D03*
D17*
X131806000Y-54044600D03*
X131806000Y-54679600D03*
X131806000Y-55340000D03*
X131806000Y-55975000D03*
X137394000Y-55975000D03*
X137394000Y-55327300D03*
X137394000Y-54679600D03*
X137394000Y-54031900D03*
D18*
X92800000Y-56000000D03*
D19*
X102200000Y-56000000D03*
D20*
X97500000Y-51100000D03*
X97500000Y-59300000D03*
D18*
X104550000Y-56000000D03*
D19*
X113950000Y-56000000D03*
D20*
X109250000Y-51100000D03*
X109250000Y-59300000D03*
M02*
