%FSLAX46Y46*%
G04 Gerber Fmt 4.6, Leading zero omitted, Abs format (unit mm)*
G04 Created by KiCad (PCBNEW (2014-09-02 BZR 5112)-product) date 2015-04-11 10:31:41 PM*
%MOMM*%
G01*
G04 APERTURE LIST*
%ADD10C,0.100000*%
%ADD11C,0.254000*%
%ADD12C,0.200000*%
%ADD13C,0.152400*%
%ADD14C,0.158750*%
%ADD15R,1.574800X2.286000*%
%ADD16O,1.574800X2.286000*%
%ADD17R,0.812800X1.143000*%
%ADD18R,1.143000X0.812800*%
%ADD19R,1.300480X0.299720*%
%ADD20O,2.800000X3.500000*%
%ADD21C,1.750000*%
%ADD22O,3.500000X5.000000*%
%ADD23O,2.000000X3.500000*%
%ADD24O,3.500000X3.500000*%
G04 APERTURE END LIST*
D10*
D11*
X108100000Y-43100000D02*
X110900000Y-43100000D01*
X110900000Y-43100000D02*
X110900000Y-44900000D01*
X110900000Y-44900000D02*
X108100000Y-44900000D01*
X108100000Y-44900000D02*
X108100000Y-43100000D01*
X96100000Y-40600000D02*
X98900000Y-40600000D01*
X98900000Y-40600000D02*
X98900000Y-42400000D01*
X98900000Y-42400000D02*
X96100000Y-42400000D01*
X96100000Y-42400000D02*
X96100000Y-40600000D01*
X116900000Y-47400000D02*
X114100000Y-47400000D01*
X114100000Y-47400000D02*
X114100000Y-45600000D01*
X114100000Y-45600000D02*
X116900000Y-45600000D01*
X116900000Y-45600000D02*
X116900000Y-47400000D01*
X108100000Y-39600000D02*
X110900000Y-39600000D01*
X110900000Y-39600000D02*
X110900000Y-41400000D01*
X110900000Y-41400000D02*
X108100000Y-41400000D01*
X108100000Y-41400000D02*
X108100000Y-39600000D01*
X129900000Y-47400000D02*
X127100000Y-47400000D01*
X127100000Y-47400000D02*
X127100000Y-45600000D01*
X127100000Y-45600000D02*
X129900000Y-45600000D01*
X129900000Y-45600000D02*
X129900000Y-47400000D01*
X125100000Y-56400000D02*
X125100000Y-53600000D01*
X125100000Y-53600000D02*
X126900000Y-53600000D01*
X126900000Y-53600000D02*
X126900000Y-56400000D01*
X126900000Y-56400000D02*
X125100000Y-56400000D01*
X127100000Y-56400000D02*
X127100000Y-53600000D01*
X127100000Y-53600000D02*
X128900000Y-53600000D01*
X128900000Y-53600000D02*
X128900000Y-56400000D01*
X128900000Y-56400000D02*
X127100000Y-56400000D01*
X129100000Y-56400000D02*
X129100000Y-53600000D01*
X129100000Y-53600000D02*
X130900000Y-53600000D01*
X130900000Y-53600000D02*
X130900000Y-56400000D01*
X130900000Y-56400000D02*
X129100000Y-56400000D01*
D12*
X117400000Y-44430000D02*
X117400000Y-41570000D01*
X117400000Y-41570000D02*
X113800000Y-41570000D01*
X113800000Y-41570000D02*
X113800000Y-44430000D01*
X113822000Y-44438000D02*
X117378000Y-44438000D01*
X114838000Y-43803000D02*
G75*
G03X114838000Y-43803000I-381000J0D01*
G74*
G01*
D11*
X137400000Y-54900000D02*
X134600000Y-54900000D01*
X134600000Y-54900000D02*
X134600000Y-53100000D01*
X134600000Y-53100000D02*
X137400000Y-53100000D01*
X137400000Y-53100000D02*
X137400000Y-54900000D01*
X134600000Y-55100000D02*
X137400000Y-55100000D01*
X137400000Y-55100000D02*
X137400000Y-56900000D01*
X137400000Y-56900000D02*
X134600000Y-56900000D01*
X134600000Y-56900000D02*
X134600000Y-55100000D01*
D12*
X104900000Y-44430000D02*
X104900000Y-41570000D01*
X104900000Y-41570000D02*
X101300000Y-41570000D01*
X101300000Y-41570000D02*
X101300000Y-44430000D01*
X101322000Y-44438000D02*
X104878000Y-44438000D01*
X102338000Y-43803000D02*
G75*
G03X102338000Y-43803000I-381000J0D01*
G74*
G01*
D13*
X109601599Y-42717714D02*
X109630628Y-42746743D01*
X109717714Y-42775771D01*
X109775771Y-42775771D01*
X109862856Y-42746743D01*
X109920914Y-42688686D01*
X109949942Y-42630629D01*
X109978971Y-42514514D01*
X109978971Y-42427429D01*
X109949942Y-42311314D01*
X109920914Y-42253257D01*
X109862856Y-42195200D01*
X109775771Y-42166171D01*
X109717714Y-42166171D01*
X109630628Y-42195200D01*
X109601599Y-42224229D01*
X109021028Y-42775771D02*
X109369371Y-42775771D01*
X109195199Y-42775771D02*
X109195199Y-42166171D01*
X109253256Y-42253257D01*
X109311314Y-42311314D01*
X109369371Y-42340343D01*
X97601599Y-40217714D02*
X97630628Y-40246743D01*
X97717714Y-40275771D01*
X97775771Y-40275771D01*
X97862856Y-40246743D01*
X97920914Y-40188686D01*
X97949942Y-40130629D01*
X97978971Y-40014514D01*
X97978971Y-39927429D01*
X97949942Y-39811314D01*
X97920914Y-39753257D01*
X97862856Y-39695200D01*
X97775771Y-39666171D01*
X97717714Y-39666171D01*
X97630628Y-39695200D01*
X97601599Y-39724229D01*
X97369371Y-39724229D02*
X97340342Y-39695200D01*
X97282285Y-39666171D01*
X97137142Y-39666171D01*
X97079085Y-39695200D01*
X97050056Y-39724229D01*
X97021028Y-39782286D01*
X97021028Y-39840343D01*
X97050056Y-39927429D01*
X97398399Y-40275771D01*
X97021028Y-40275771D01*
X115601599Y-45317714D02*
X115630628Y-45346743D01*
X115717714Y-45375771D01*
X115775771Y-45375771D01*
X115862856Y-45346743D01*
X115920914Y-45288686D01*
X115949942Y-45230629D01*
X115978971Y-45114514D01*
X115978971Y-45027429D01*
X115949942Y-44911314D01*
X115920914Y-44853257D01*
X115862856Y-44795200D01*
X115775771Y-44766171D01*
X115717714Y-44766171D01*
X115630628Y-44795200D01*
X115601599Y-44824229D01*
X115398399Y-44766171D02*
X115021028Y-44766171D01*
X115224228Y-44998400D01*
X115137142Y-44998400D01*
X115079085Y-45027429D01*
X115050056Y-45056457D01*
X115021028Y-45114514D01*
X115021028Y-45259657D01*
X115050056Y-45317714D01*
X115079085Y-45346743D01*
X115137142Y-45375771D01*
X115311314Y-45375771D01*
X115369371Y-45346743D01*
X115398399Y-45317714D01*
X109601599Y-39217714D02*
X109630628Y-39246743D01*
X109717714Y-39275771D01*
X109775771Y-39275771D01*
X109862856Y-39246743D01*
X109920914Y-39188686D01*
X109949942Y-39130629D01*
X109978971Y-39014514D01*
X109978971Y-38927429D01*
X109949942Y-38811314D01*
X109920914Y-38753257D01*
X109862856Y-38695200D01*
X109775771Y-38666171D01*
X109717714Y-38666171D01*
X109630628Y-38695200D01*
X109601599Y-38724229D01*
X109079085Y-38869371D02*
X109079085Y-39275771D01*
X109224228Y-38637143D02*
X109369371Y-39072571D01*
X108991999Y-39072571D01*
X128601599Y-45375771D02*
X128804799Y-45085486D01*
X128949942Y-45375771D02*
X128949942Y-44766171D01*
X128717714Y-44766171D01*
X128659656Y-44795200D01*
X128630628Y-44824229D01*
X128601599Y-44882286D01*
X128601599Y-44969371D01*
X128630628Y-45027429D01*
X128659656Y-45056457D01*
X128717714Y-45085486D01*
X128949942Y-45085486D01*
X128398399Y-44766171D02*
X128021028Y-44766171D01*
X128224228Y-44998400D01*
X128137142Y-44998400D01*
X128079085Y-45027429D01*
X128050056Y-45056457D01*
X128021028Y-45114514D01*
X128021028Y-45259657D01*
X128050056Y-45317714D01*
X128079085Y-45346743D01*
X128137142Y-45375771D01*
X128311314Y-45375771D01*
X128369371Y-45346743D01*
X128398399Y-45317714D01*
X126101599Y-53275771D02*
X126304799Y-52985486D01*
X126449942Y-53275771D02*
X126449942Y-52666171D01*
X126217714Y-52666171D01*
X126159656Y-52695200D01*
X126130628Y-52724229D01*
X126101599Y-52782286D01*
X126101599Y-52869371D01*
X126130628Y-52927429D01*
X126159656Y-52956457D01*
X126217714Y-52985486D01*
X126449942Y-52985486D01*
X125753256Y-52927429D02*
X125811314Y-52898400D01*
X125840342Y-52869371D01*
X125869371Y-52811314D01*
X125869371Y-52782286D01*
X125840342Y-52724229D01*
X125811314Y-52695200D01*
X125753256Y-52666171D01*
X125637142Y-52666171D01*
X125579085Y-52695200D01*
X125550056Y-52724229D01*
X125521028Y-52782286D01*
X125521028Y-52811314D01*
X125550056Y-52869371D01*
X125579085Y-52898400D01*
X125637142Y-52927429D01*
X125753256Y-52927429D01*
X125811314Y-52956457D01*
X125840342Y-52985486D01*
X125869371Y-53043543D01*
X125869371Y-53159657D01*
X125840342Y-53217714D01*
X125811314Y-53246743D01*
X125753256Y-53275771D01*
X125637142Y-53275771D01*
X125579085Y-53246743D01*
X125550056Y-53217714D01*
X125521028Y-53159657D01*
X125521028Y-53043543D01*
X125550056Y-52985486D01*
X125579085Y-52956457D01*
X125637142Y-52927429D01*
X128101599Y-53275771D02*
X128304799Y-52985486D01*
X128449942Y-53275771D02*
X128449942Y-52666171D01*
X128217714Y-52666171D01*
X128159656Y-52695200D01*
X128130628Y-52724229D01*
X128101599Y-52782286D01*
X128101599Y-52869371D01*
X128130628Y-52927429D01*
X128159656Y-52956457D01*
X128217714Y-52985486D01*
X128449942Y-52985486D01*
X127811314Y-53275771D02*
X127695199Y-53275771D01*
X127637142Y-53246743D01*
X127608114Y-53217714D01*
X127550056Y-53130629D01*
X127521028Y-53014514D01*
X127521028Y-52782286D01*
X127550056Y-52724229D01*
X127579085Y-52695200D01*
X127637142Y-52666171D01*
X127753256Y-52666171D01*
X127811314Y-52695200D01*
X127840342Y-52724229D01*
X127869371Y-52782286D01*
X127869371Y-52927429D01*
X127840342Y-52985486D01*
X127811314Y-53014514D01*
X127753256Y-53043543D01*
X127637142Y-53043543D01*
X127579085Y-53014514D01*
X127550056Y-52985486D01*
X127521028Y-52927429D01*
X130391885Y-53275771D02*
X130595085Y-52985486D01*
X130740228Y-53275771D02*
X130740228Y-52666171D01*
X130508000Y-52666171D01*
X130449942Y-52695200D01*
X130420914Y-52724229D01*
X130391885Y-52782286D01*
X130391885Y-52869371D01*
X130420914Y-52927429D01*
X130449942Y-52956457D01*
X130508000Y-52985486D01*
X130740228Y-52985486D01*
X129811314Y-53275771D02*
X130159657Y-53275771D01*
X129985485Y-53275771D02*
X129985485Y-52666171D01*
X130043542Y-52753257D01*
X130101600Y-52811314D01*
X130159657Y-52840343D01*
X129433943Y-52666171D02*
X129375886Y-52666171D01*
X129317829Y-52695200D01*
X129288800Y-52724229D01*
X129259771Y-52782286D01*
X129230743Y-52898400D01*
X129230743Y-53043543D01*
X129259771Y-53159657D01*
X129288800Y-53217714D01*
X129317829Y-53246743D01*
X129375886Y-53275771D01*
X129433943Y-53275771D01*
X129492000Y-53246743D01*
X129521029Y-53217714D01*
X129550057Y-53159657D01*
X129579086Y-53043543D01*
X129579086Y-52898400D01*
X129550057Y-52782286D01*
X129521029Y-52724229D01*
X129492000Y-52695200D01*
X129433943Y-52666171D01*
D14*
X116983810Y-43332714D02*
X116983810Y-43949571D01*
X116953571Y-44022143D01*
X116923333Y-44058429D01*
X116862857Y-44094714D01*
X116741905Y-44094714D01*
X116681429Y-44058429D01*
X116651190Y-44022143D01*
X116620952Y-43949571D01*
X116620952Y-43332714D01*
X116348810Y-43405286D02*
X116318572Y-43369000D01*
X116258095Y-43332714D01*
X116106905Y-43332714D01*
X116046429Y-43369000D01*
X116016191Y-43405286D01*
X115985952Y-43477857D01*
X115985952Y-43550429D01*
X116016191Y-43659286D01*
X116379048Y-44094714D01*
X115985952Y-44094714D01*
D13*
X138351599Y-54217714D02*
X138380628Y-54246743D01*
X138467714Y-54275771D01*
X138525771Y-54275771D01*
X138612856Y-54246743D01*
X138670914Y-54188686D01*
X138699942Y-54130629D01*
X138728971Y-54014514D01*
X138728971Y-53927429D01*
X138699942Y-53811314D01*
X138670914Y-53753257D01*
X138612856Y-53695200D01*
X138525771Y-53666171D01*
X138467714Y-53666171D01*
X138380628Y-53695200D01*
X138351599Y-53724229D01*
X137800056Y-53666171D02*
X138090342Y-53666171D01*
X138119371Y-53956457D01*
X138090342Y-53927429D01*
X138032285Y-53898400D01*
X137887142Y-53898400D01*
X137829085Y-53927429D01*
X137800056Y-53956457D01*
X137771028Y-54014514D01*
X137771028Y-54159657D01*
X137800056Y-54217714D01*
X137829085Y-54246743D01*
X137887142Y-54275771D01*
X138032285Y-54275771D01*
X138090342Y-54246743D01*
X138119371Y-54217714D01*
X138351599Y-56217714D02*
X138380628Y-56246743D01*
X138467714Y-56275771D01*
X138525771Y-56275771D01*
X138612856Y-56246743D01*
X138670914Y-56188686D01*
X138699942Y-56130629D01*
X138728971Y-56014514D01*
X138728971Y-55927429D01*
X138699942Y-55811314D01*
X138670914Y-55753257D01*
X138612856Y-55695200D01*
X138525771Y-55666171D01*
X138467714Y-55666171D01*
X138380628Y-55695200D01*
X138351599Y-55724229D01*
X137829085Y-55666171D02*
X137945199Y-55666171D01*
X138003256Y-55695200D01*
X138032285Y-55724229D01*
X138090342Y-55811314D01*
X138119371Y-55927429D01*
X138119371Y-56159657D01*
X138090342Y-56217714D01*
X138061314Y-56246743D01*
X138003256Y-56275771D01*
X137887142Y-56275771D01*
X137829085Y-56246743D01*
X137800056Y-56217714D01*
X137771028Y-56159657D01*
X137771028Y-56014514D01*
X137800056Y-55956457D01*
X137829085Y-55927429D01*
X137887142Y-55898400D01*
X138003256Y-55898400D01*
X138061314Y-55927429D01*
X138090342Y-55956457D01*
X138119371Y-56014514D01*
D14*
X104483810Y-43332714D02*
X104483810Y-43949571D01*
X104453571Y-44022143D01*
X104423333Y-44058429D01*
X104362857Y-44094714D01*
X104241905Y-44094714D01*
X104181429Y-44058429D01*
X104151190Y-44022143D01*
X104120952Y-43949571D01*
X104120952Y-43332714D01*
X103485952Y-44094714D02*
X103848810Y-44094714D01*
X103667381Y-44094714D02*
X103667381Y-43332714D01*
X103727857Y-43441571D01*
X103788333Y-43514143D01*
X103848810Y-43550429D01*
%LPC*%
D15*
X100330000Y-59690000D03*
D16*
X100330000Y-52070000D03*
X115570000Y-59690000D03*
X118110000Y-59690000D03*
X118110000Y-52070000D03*
X115570000Y-52070000D03*
D15*
X124380000Y-42810000D03*
D16*
X126920000Y-42810000D03*
X129460000Y-42810000D03*
X132000000Y-42810000D03*
X134540000Y-42810000D03*
X137080000Y-42810000D03*
X139620000Y-42810000D03*
X139620000Y-35190000D03*
X137080000Y-35190000D03*
X134540000Y-35190000D03*
X132000000Y-35190000D03*
X129460000Y-35190000D03*
X126920000Y-35190000D03*
X124380000Y-35190000D03*
D15*
X124380000Y-58810000D03*
D16*
X126920000Y-58810000D03*
X129460000Y-58810000D03*
X132000000Y-58810000D03*
X134540000Y-58810000D03*
X137080000Y-58810000D03*
X139620000Y-58810000D03*
X139620000Y-51190000D03*
X137080000Y-51190000D03*
X134540000Y-51190000D03*
X132000000Y-51190000D03*
X129460000Y-51190000D03*
X126920000Y-51190000D03*
X124380000Y-51190000D03*
D17*
X108649100Y-44000000D03*
X110350900Y-44000000D03*
X96649100Y-41500000D03*
X98350900Y-41500000D03*
X116350900Y-46500000D03*
X114649100Y-46500000D03*
X108649100Y-40500000D03*
X110350900Y-40500000D03*
X129350900Y-46500000D03*
X127649100Y-46500000D03*
D18*
X126000000Y-55850900D03*
X126000000Y-54149100D03*
X128000000Y-55850900D03*
X128000000Y-54149100D03*
X130000000Y-55850900D03*
X130000000Y-54149100D03*
D19*
X112806000Y-43955400D03*
X112806000Y-43320400D03*
X112806000Y-42660000D03*
X112806000Y-42025000D03*
X118394000Y-42025000D03*
X118394000Y-42672700D03*
X118394000Y-43320400D03*
X118394000Y-43968100D03*
D20*
X101800000Y-39000000D03*
X92200000Y-39000000D03*
D21*
X99500000Y-46500000D03*
X97000000Y-46500000D03*
X94500000Y-46500000D03*
D20*
X114300000Y-39000000D03*
X104700000Y-39000000D03*
D21*
X112000000Y-46500000D03*
X109500000Y-46500000D03*
X107000000Y-46500000D03*
D20*
X126800000Y-39000000D03*
X117200000Y-39000000D03*
D21*
X124500000Y-46500000D03*
X122000000Y-46500000D03*
X119500000Y-46500000D03*
D20*
X139800000Y-39000000D03*
X130200000Y-39000000D03*
D21*
X137500000Y-46500000D03*
X135000000Y-46500000D03*
X132500000Y-46500000D03*
D17*
X136850900Y-54000000D03*
X135149100Y-54000000D03*
X135149100Y-56000000D03*
X136850900Y-56000000D03*
D19*
X100306000Y-43955400D03*
X100306000Y-43320400D03*
X100306000Y-42660000D03*
X100306000Y-42025000D03*
X105894000Y-42025000D03*
X105894000Y-42672700D03*
X105894000Y-43320400D03*
X105894000Y-43968100D03*
D22*
X92800000Y-56000000D03*
D23*
X102200000Y-56000000D03*
D24*
X97500000Y-51100000D03*
X97500000Y-59300000D03*
D22*
X104550000Y-56000000D03*
D23*
X113950000Y-56000000D03*
D24*
X109250000Y-51100000D03*
X109250000Y-59300000D03*
M02*
